#!OML:ASF E:\Steps\Project 1\Capture day 1\Session 2\Subject.ASF
:FULLY-SPECIFIED
:DEGREES
480
root 9.26174 16.342 22.9433 -154.596 0.203281 178.795
lowerback -24.9362 -0.971032 -4.16975
upperback -2.99957 -0.809987 -0.617664
thorax 10.6041 -0.852061 1.37709
lowerneck 1.51977 -2.55162 -4.27859
upperneck -11.2121 -2.44505 7.25457
head -3.80756 -1.11621 3.29839
rclavicle -2.48481e-016 -2.78299e-015
rhumerus -38.3281 -17.6283 -80.0188
rradius 28.357
rwrist 5.01667
rhand -9.78278 -51.7699
rfingers 7.12502
rthumb 16.1928 -81.1136
lclavicle -2.48481e-016 -2.78299e-015
lhumerus -33.3503 6.36082 82.0061
lradius 18.1568
lwrist -12.6043
lhand -25.3429 -15.9461
lfingers 7.12502
lthumb 1.18035 14.0304
rfemur -21.7403 4.37937 17.9355
rtibia 6.93725
rfoot -19.1397 -3.51786
rtoes -22.9076
lfemur -21.4348 -9.78457 -19.6125
ltibia 6.86598
lfoot -8.26555 5.31733
ltoes -43.5506
481
root 9.26334 16.3426 22.9472 -154.564 0.264004 178.826
lowerback -25.0381 -0.954498 -4.21019
upperback -2.99552 -0.777999 -0.586015
thorax 10.6616 -0.841533 1.44476
lowerneck 1.44268 -2.54239 -4.33771
upperneck -11.07 -2.44653 7.2715
head -3.74185 -1.11692 3.30932
rclavicle -2.48481e-016 3.18055e-015
rhumerus -38.2637 -17.9733 -79.7197
rradius 28.2515
rwrist 4.95965
rhand -10.1262 -51.8902
rfingers 7.12502
rthumb 15.8621 -81.2605
lclavicle -2.48481e-016 3.18055e-015
lhumerus -33.4462 5.95448 82.278
lradius 18.4547
lwrist -12.3374
lhand -24.798 -15.5858
lfingers 7.12502
lthumb 1.70667 14.3871
rfemur -21.8519 4.41116 17.9543
rtibia 7.01
rfoot -19.1542 -3.45375
rtoes -22.6538
lfemur -21.4896 -9.72558 -19.5802
ltibia 6.89356
lfoot -8.24354 5.33366
ltoes -43.9008
482
root 9.26729 16.3408 22.954 -154.415 0.272079 178.79
lowerback -25.2086 -0.956948 -4.31263
upperback -3.04475 -0.759566 -0.606285
thorax 10.6949 -0.843494 1.48425
lowerneck 1.48245 -2.55633 -4.32546
upperneck -10.975 -2.47287 7.32379
head -3.71416 -1.1361 3.32455
rclavicle -6.4605e-016 7.15625e-015
rhumerus -38.2432 -18.5368 -79.3573
rradius 28.0753
rwrist 4.88396
rhand -10.6361 -51.9598
rfingers 7.12502
rthumb 15.3711 -81.3684
lclavicle -6.4605e-016 7.15625e-015
lhumerus -33.463 5.71097 82.3446
lradius 18.5578
lwrist -12.0521
lhand -24.1086 -15.9667
lfingers 7.12502
lthumb 2.3725 13.9999
rfemur -22.1418 4.37559 17.9148
rtibia 7.21849
rfoot -19.262 -3.37251
rtoes -22.7849
lfemur -21.7274 -9.70174 -19.5881
ltibia 7.01382
lfoot -8.26906 5.28561
ltoes -43.8521
483
root 9.26695 16.3406 22.9513 -154.529 0.357779 178.846
lowerback -25.1899 -1.79039 -3.87055
upperback -3.06502 -0.450081 -0.584286
thorax 10.6836 -0.0359052 1.48016
lowerneck 1.65457 -2.60825 -4.27512
upperneck -10.9502 -2.5449 7.41217
head -3.73384 -1.18296 3.35238
rclavicle -7.45443e-016 -7.95139e-015
rhumerus -38.3426 -18.9886 -79.0152
rradius 27.9788
rwrist 4.7717
rhand -10.6949 -51.7583
rfingers 7.12502
rthumb 15.3144 -81.1713
lclavicle -7.45443e-016 -7.95139e-015
lhumerus -33.5198 5.69213 82.273
lradius 18.5373
lwrist -12.0266
lhand -24.5188 -16.4999
lfingers 7.12502
lthumb 1.97634 13.4707
rfemur -22.0392 4.25883 18.0138
rtibia 7.26376
rfoot -19.3142 -3.19085
rtoes -23.848
lfemur -21.527 -9.79102 -19.5579
ltibia 6.92799
lfoot -8.25157 5.47157
ltoes -44.0398
484
root 9.26766 16.3397 22.9583 -154.485 0.408454 178.892
lowerback -25.228 -1.78475 -3.89214
upperback -3.11065 -0.432922 -0.543075
thorax 10.6517 -0.0252815 1.54514
lowerneck 1.81782 -2.68605 -4.28774
upperneck -11.3718 -2.59158 7.76647
head -3.49785 -1.2476 3.14593
rclavicle -2.33572e-015 4.37326e-015
rhumerus -38.3192 -19.295 -78.691
rradius 27.8404
rwrist 4.68698
rhand -10.3891 -51.5617
rfingers 7.12502
rthumb 15.6089 -80.9519
lclavicle -2.33572e-015 4.37326e-015
lhumerus -33.5799 5.55601 82.3997
lradius 18.5791
lwrist -11.5158
lhand -24.8553 -16.1323
lfingers 7.12502
lthumb 1.65136 13.8411
rfemur -22.1858 4.26684 18.0622
rtibia 7.34424
rfoot -19.2573 -3.18788
rtoes -23.9917
lfemur -21.6479 -9.78906 -19.492
ltibia 6.9972
lfoot -8.19929 5.55109
ltoes -44.5117
485
root 9.26906 16.3413 22.9681 -154.465 0.455891 178.907
lowerback -25.1831 -1.78373 -3.91035
upperback -3.15743 -0.425839 -0.529734
thorax 10.5748 -0.0186337 1.57359
lowerneck 1.90156 -2.72033 -4.33532
upperneck -11.4117 -2.63304 7.84759
head -3.51888 -1.27166 3.18178
rclavicle 3.18055e-015 -8.34896e-015
rhumerus -38.2078 -19.6629 -78.3967
rradius 27.5703
rwrist 4.74765
rhand -10.0591 -51.2404
rfingers 7.12502
rthumb 15.9267 -80.6055
lclavicle 3.18055e-015 -8.34896e-015
lhumerus -33.6285 5.15106 82.6485
lradius 18.6841
lwrist -10.3922
lhand -24.5957 -15.5962
lfingers 7.12502
lthumb 1.90208 14.375
rfemur -22.3372 4.32314 18.0557
rtibia 7.46523
rfoot -19.1881 -3.21053
rtoes -23.6439
lfemur -21.7686 -9.71486 -19.4669
ltibia 7.08412
lfoot -8.15984 5.55094
ltoes -45.1756
486
root 9.27058 16.3436 22.974 -154.543 0.472956 178.832
lowerback -25.0414 -1.79842 -3.99275
upperback -3.1953 -0.424126 -0.563908
thorax 10.4574 -0.0166869 1.58388
lowerneck 1.93292 -2.71281 -4.35583
upperneck -11.2718 -2.64028 7.8784
head -3.48096 -1.28011 3.19332
rclavicle -4.47266e-016 -3.45885e-014
rhumerus -38.1683 -20.2013 -78.0353
rradius 27.2507
rwrist 4.99124
rhand -10.1405 -51.1445
rfingers 7.12502
rthumb 15.8484 -80.5158
lclavicle -4.47266e-016 -3.45885e-014
lhumerus -33.6814 4.73953 82.8332
lradius 18.7753
lwrist -9.46343
lhand -24.4017 -15.3954
lfingers 7.12502
lthumb 2.08943 14.5741
rfemur -22.3732 4.26197 17.9768
rtibia 7.69532
rfoot -19.3539 -3.14852
rtoes -23.3416
lfemur -21.7254 -9.66743 -19.5683
ltibia 7.12182
lfoot -8.12517 5.48901
ltoes -45.6849
